<?xml version="1.0" encoding="iso-8859-1"?>
<!-- Uploaded to: SVG Repo, www.svgrepo.com, Generator: SVG Repo Mixer Tools -->
<svg version="1.1" id="Layer_1" xmlns="http://www.w3.org/2000/svg" xmlns:xlink="http://www.w3.org/1999/xlink" 
	 viewBox="0 0 511.999 511.999" xml:space="preserve">
<path style="fill:#DFDFE2;" d="M215.465,321.998v-49.504c0-5.368,2.748-10.362,7.281-13.236l182.028-115.392V78.703h-52.58V47.362
	h68.251c8.654,0,15.671,7.016,15.671,15.671v89.453c0,5.368-2.748,10.362-7.281,13.236L246.806,281.114v40.884H215.465z"/>
<g>
	<path style="opacity:0.14;fill:#3E3B43;enable-background:new    ;" d="M420.444,47.362h-14.505
		c8.654,0,15.671,7.016,15.671,15.671v89.453c0,5.368-8.512,10.362-13.045,13.236L226.537,281.114v40.884h20.27v-40.884
		l182.028-115.392c4.533-2.874,7.281-7.868,7.281-13.236V63.032C436.115,54.378,429.098,47.362,420.444,47.362z"/>
	<rect x="360.074" y="47.357" style="opacity:0.14;fill:#3E3B43;enable-background:new    ;" width="13.499" height="31.342"/>
</g>
<path style="fill:#FFF5CC;" d="M133.105,125.981h-16.728c-8.539,0-15.461-6.922-15.461-15.461V15.546
	c0-8.539,6.922-15.461,15.461-15.461h228.235c8.539,0,15.461,6.922,15.461,15.461v94.975c0,8.539-6.922,15.461-15.461,15.461
	h-86.356H133.105z"/>
<path style="opacity:0.23;fill:#DDB200;enable-background:new    ;" d="M344.612,0.084h-6.617v88.358
	c0,8.539-6.922,15.461-15.461,15.461h-86.356H111.027h-10.111v6.617c0,8.539,6.922,15.461,15.461,15.461h16.728h125.151h86.356
	c8.539,0,15.461-6.922,15.461-15.461V15.546C360.072,7.006,353.15,0.084,344.612,0.084z"/>
<path style="fill:#DFDFE2;" d="M94.658,103.894H82.142c-3.456,0-6.258-2.802-6.258-6.258v-74.36c0-3.456,2.802-6.258,6.258-6.258
	h12.516c3.456,0,6.258,2.802,6.258,6.258v74.36C100.916,101.092,98.114,103.894,94.658,103.894z"/>
<path style="opacity:0.48;fill:#3E3B43;enable-background:new    ;" d="M95.04,17.018H82.524c3.456,0,6.258,2.802,6.258,6.258v74.36
	c0,3.456-2.802,6.258-6.258,6.258H95.04c3.456,0,6.258-2.802,6.258-6.258v-74.36C101.298,19.819,98.496,17.018,95.04,17.018z"/>
<g>
	<path style="fill:#FF5023;" d="M308.658,0l-0.285,88.398v6.286v4.081c0,6.852-5.606,12.458-12.458,12.458l0,0
		c-6.852,0-12.458-5.606-12.458-12.458v-4.081l-0.285-4.354l0.285-15.479c0.028-6.852-5.555-12.481-12.407-12.508l0,0
		c-6.852-0.028-12.481,5.555-12.508,12.407l-0.285,15.478v4.456v69.765c0,6.852-5.606,12.458-12.458,12.458l0,0
		c-6.852,0-12.458-5.606-12.458-12.458V94.684l-0.285-18.955l0.285-15.479c0.028-6.852-5.555-12.481-12.407-12.508l0,0
		c-6.852-0.028-12.481,5.555-12.508,12.407l-0.285,15.479v6.286v4.081c0,6.852-5.606,12.458-12.458,12.458l0,0
		c-6.852,0-12.458-5.606-12.458-12.458v-4.081l-0.285-13.709l0.285-15.479c0.028-6.852-5.555-12.481-12.407-12.508l0,0
		c-6.852-0.028-12.481,5.555-12.508,12.407l-0.285,15.479v13.81v41.701c0,6.852-5.606,12.458-12.458,12.458l0,0
		c-6.852,0-12.458-5.606-12.458-12.458V0H308.658z"/>
	<path style="fill:#FF5023;" d="M276.985,321.998h-93.367c-8.044,0-14.626,6.582-14.626,14.626v13.3
		c0,8.044,6.582,14.626,14.626,14.626h4.736c3.982,0,7.21,3.228,7.21,7.21v125.613c0,8.044,6.582,14.626,14.626,14.626h44.958
		c8.044,0,14.626-6.582,14.626-14.626V371.76c0-3.983,3.228-7.21,7.21-7.21l0,0c8.044,0,14.626-6.582,14.626-14.626v-13.3
		C291.612,328.58,285.03,321.998,276.985,321.998z"/>
</g>
<g>
	<path style="opacity:0.2;fill:#AB2300;enable-background:new    ;" d="M276.375,321.998h-28.003
		c8.044,0,14.626,6.582,14.626,14.626v13.3c0,8.044-6.582,14.626-14.626,14.626l0,0c-3.982,0-7.21,3.228-7.21,7.21v125.613
		c0,8.044-6.582,14.626-14.626,14.626h28.002c8.044,0,14.626-6.582,14.626-14.626V371.76c0-3.983,3.228-7.21,7.21-7.21
		c8.044,0,14.626-6.582,14.626-14.626v-13.3C291.001,328.58,284.419,321.998,276.375,321.998z"/>
	<path style="fill:#AB2300;" d="M220.881,481.568c-4.328,0-7.835-3.507-7.835-7.835v-89.025c0-4.328,3.507-7.835,7.835-7.835
		c4.328,0,7.835,3.507,7.835,7.835v89.025C228.716,478.06,225.209,481.568,220.881,481.568z"/>
	<path style="fill:#AB2300;" d="M244.941,481.568c-4.328,0-7.835-3.507-7.835-7.835v-89.025c0-4.328,3.507-7.835,7.835-7.835
		s7.835,3.507,7.835,7.835v89.025C252.776,478.06,249.268,481.568,244.941,481.568z"/>
</g>
</svg>