<?xml version="1.0" encoding="utf-8"?>
<!-- Uploaded to: SVG Repo, www.svgrepo.com, Generator: SVG Repo Mixer Tools -->
<svg width="800px" height="800px" viewBox="0 0 1024 1024" class="icon"  version="1.1" xmlns="http://www.w3.org/2000/svg"><path d="M138.24 435.2h51.2c5.632 0 10.24 4.608 10.24 10.24v179.2c0 5.632-4.608 10.24-10.24 10.24H138.24c-5.632 0-10.24-4.608-10.24-10.24V445.44c0-5.632 4.608-10.24 10.24-10.24z" fill="#7ED321" /><path d="M189.44 642.56H138.24c-9.728 0-17.92-8.192-17.92-17.92V445.44c0-9.728 8.192-17.92 17.92-17.92h51.2c9.728 0 17.92 8.192 17.92 17.92v179.2c0 9.728-8.192 17.92-17.92 17.92z m-51.2-199.68c-1.536 0-2.56 1.024-2.56 2.56v179.2c0 1.536 1.024 2.56 2.56 2.56h51.2c1.536 0 2.56-1.024 2.56-2.56V445.44c0-1.536-1.024-2.56-2.56-2.56H138.24z" fill="" /><path d="M296.96 168.96v40.96c0 5.632-4.608 10.24-10.24 10.24h-10.24c-5.632 0-10.24-4.608-10.24-10.24v-40.96h30.72zM665.6 168.96v40.96c0 5.632-4.608 10.24-10.24 10.24h-10.24c-5.632 0-10.24-4.608-10.24-10.24v-40.96h30.72zM358.4 168.96v40.96c0 5.632-4.608 10.24-10.24 10.24h-10.24c-5.632 0-10.24-4.608-10.24-10.24v-40.96h30.72zM727.04 168.96v40.96c0 5.632-4.608 10.24-10.24 10.24h-10.24c-5.632 0-10.24-4.608-10.24-10.24v-40.96h30.72zM419.84 168.96v40.96c0 5.632-4.608 10.24-10.24 10.24h-10.24c-5.632 0-10.24-4.608-10.24-10.24v-40.96h30.72zM788.48 168.96v40.96c0 5.632-4.608 10.24-10.24 10.24h-10.24c-5.632 0-10.24-4.608-10.24-10.24v-40.96h30.72zM481.28 168.96v40.96c0 5.632-4.608 10.24-10.24 10.24h-10.24c-5.632 0-10.24-4.608-10.24-10.24v-40.96h30.72zM849.92 168.96v40.96c0 5.632-4.608 10.24-10.24 10.24h-10.24c-5.632 0-10.24-4.608-10.24-10.24v-40.96h30.72zM542.72 168.96v40.96c0 5.632-4.608 10.24-10.24 10.24h-10.24c-5.632 0-10.24-4.608-10.24-10.24v-40.96h30.72zM906.24 168.96v40.96c0 5.632-4.608 10.24-10.24 10.24h-10.24c-5.632 0-10.24-4.608-10.24-10.24v-40.96h30.72zM604.16 168.96v40.96c0 5.632-4.608 10.24-10.24 10.24h-10.24c-5.632 0-10.24-4.608-10.24-10.24v-40.96h30.72z" fill="#7ED321" /><path d="M924.16 153.6h-762.88c-18.432 0-33.28 14.848-33.28 33.28V194.56h-25.6c-14.336 0-25.6 11.264-25.6 25.6v633.344c0 14.336 11.264 25.6 25.6 25.6h122.88c14.336 0 25.6-11.264 25.6-25.6V327.68h673.28c18.432 0 33.28-14.848 33.28-33.28v-107.52c0-18.432-14.848-33.28-33.28-33.28zM235.52 853.504c0 5.632-4.608 10.24-10.24 10.24H102.4c-5.632 0-10.24-4.608-10.24-10.24V220.16c0-5.632 4.608-10.24 10.24-10.24h57.344c3.584 0 6.656 2.048 8.704 5.12l65.536 106.496c1.024 1.536 1.536 3.584 1.536 5.12v526.848zM942.08 294.4c0 9.728-8.192 17.92-17.92 17.92l-677.888-0.512-64.512-104.96c-4.608-7.68-12.8-12.288-22.016-12.288H143.36v-7.68c0-9.728 8.192-17.92 17.92-17.92h762.88c9.728 0 17.92 8.192 17.92 17.92v107.52z" fill="" /></svg>